HIERARCHY
ROOT Hips
{
  OFFSET -4.35178 90.3298 111.633
  CHANNELS 6 Xposition Yposition Zposition Zrotation Xrotation Yrotation
  JOINT LeftUpLeg
  {
    OFFSET 0.103456 1.85784 10.5485
    CHANNELS 6 Xposition Yposition Zposition Zrotation Xrotation Yrotation
    JOINT LeftLeg
    {
      OFFSET 43.5 -4.2e-05 0
      CHANNELS 6 Xposition Yposition Zposition Zrotation Xrotation Yrotation
      JOINT LeftFoot
      {
        OFFSET 42.3722 1.9e-05 0
        CHANNELS 6 Xposition Yposition Zposition Zrotation Xrotation Yrotation
        JOINT LeftToe
        {
          OFFSET 17.3 0 0
          CHANNELS 6 Xposition Yposition Zposition Zrotation Xrotation Yrotation
          End Site
          {
            OFFSET 0 0 0
          }
        }
      }
    }
  }
  JOINT RightUpLeg
  {
    OFFSET 0.103456 1.85782 -10.5485
    CHANNELS 6 Xposition Yposition Zposition Zrotation Xrotation Yrotation
    JOINT RightLeg
    {
      OFFSET 43.5 -2.7e-05 0
      CHANNELS 6 Xposition Yposition Zposition Zrotation Xrotation Yrotation
      JOINT RightFoot
      {
        OFFSET 42.3723 0 0
        CHANNELS 6 Xposition Yposition Zposition Zrotation Xrotation Yrotation
        JOINT RightToe
        {
          OFFSET 17.3 0 1.7e-05
          CHANNELS 6 Xposition Yposition Zposition Zrotation Xrotation Yrotation
          End Site
          {
            OFFSET 0 0 0
          }
        }
      }
    }
  }
  JOINT Spine
  {
    OFFSET 6.90197 -2.60373 0
    CHANNELS 6 Xposition Yposition Zposition Zrotation Xrotation Yrotation
    JOINT Spine1
    {
      OFFSET 12.5881 0 0
      CHANNELS 6 Xposition Yposition Zposition Zrotation Xrotation Yrotation
      JOINT Spine2
      {
        OFFSET 12.3432 -1.8e-05 0
        CHANNELS 6 Xposition Yposition Zposition Zrotation Xrotation Yrotation
        JOINT Neck
        {
          OFFSET 25.8329 2.3e-05 0
          CHANNELS 6 Xposition Yposition Zposition Zrotation Xrotation Yrotation
          JOINT Head
          {
            OFFSET 11.7666 0 0
            CHANNELS 6 Xposition Yposition Zposition Zrotation Xrotation Yrotation
            End Site
            {
              OFFSET 0 0 0
            }
          }
        }
        JOINT LeftShoulder
        {
          OFFSET 19.7459 -1.48035 6.0001
          CHANNELS 6 Xposition Yposition Zposition Zrotation Xrotation Yrotation
          JOINT LeftArm
          {
            OFFSET 11.2841 1.8e-05 -2e-05
            CHANNELS 6 Xposition Yposition Zposition Zrotation Xrotation Yrotation
            JOINT LeftForeArm
            {
              OFFSET 33 -1.3e-05 1.9e-05
              CHANNELS 6 Xposition Yposition Zposition Zrotation Xrotation Yrotation
              JOINT LeftHand
              {
                OFFSET 25.2 3.2e-05 1.1e-05
                CHANNELS 6 Xposition Yposition Zposition Zrotation Xrotation Yrotation
                End Site
                {
                  OFFSET 0 0 0
                }
              }
            }
          }
        }
        JOINT RightShoulder
        {
          OFFSET 19.7461 -1.48036 -6.00008
          CHANNELS 6 Xposition Yposition Zposition Zrotation Xrotation Yrotation
          JOINT RightArm
          {
            OFFSET 11.2841 0 0
            CHANNELS 6 Xposition Yposition Zposition Zrotation Xrotation Yrotation
            JOINT RightForeArm
            {
              OFFSET 33.0001 1.6e-05 0
              CHANNELS 6 Xposition Yposition Zposition Zrotation Xrotation Yrotation
              JOINT RightHand
              {
                OFFSET 25.1998 0.000123 0.000432
                CHANNELS 6 Xposition Yposition Zposition Zrotation Xrotation Yrotation
                End Site
                {
                  OFFSET 0 0 0
                }
              }
            }
          }
        }
      }
    }
  }
}
MOTION
Frames:	9
Frame Time:	0.0333333
-94.6406 87.5703 -165.026 -86.238 -27.5468 -172.976 0.103456 1.85784 10.5485 -1.57957 0.170299 -170.68 43.5 -4.2e-05 1e-05 -23.4072 -0.997197 -3.82797 42.3722 1.9e-05 0 78.8255 -4.6517 -7.51369 17.3 0 3e-06 21.4546 -1e-06 0.003093 0.103456 1.85782 -10.5485 -16.6633 13.1279 176.722 43.5 -2.7e-05 4e-06 -43.4365 4.19652 -5.65381 42.3723 0 1e-05 84.0982 6.98523 3.64076 17.3 -6e-06 1.7e-05 21.4546 -1.9e-05 -0.003116 6.90197 -2.60373 -3e-06 8.78251 0.0113527 0.421533 12.5881 1e-05 8e-06 7.5466 0.186243 0.864917 12.3432 -1.8e-05 -5e-06 7.2212 0.350901 0.866198 25.8329 2.3e-05 7e-06 6.06821 -7.58028 -5.4677 11.7666 -8e-06 -6e-06 -17.361 -11.4882 9.52169 19.7459 -1.48035 6.0001 -167.429 8.46533 -83.3108 11.2841 1.8e-05 -2e-05 -2.6838 -8.42804 62.6798 33 -1.3e-05 1.9e-05 -115.133 -19.2792 -9.05993 25.2 3.2e-05 1.1e-05 -23.9311 28.483 0.517268 19.7461 -1.48036 -6.00008 -179.5 -0.716106 88.2497 11.2841 1.42109e-14 -1e-06 -39.6149 -5.74167 -50.8566 33.0001 1.6e-05 -1e-06 -86.1161 -7.21094 22.2154 25.1998 0.000123 0.000432 -16.929 -10.9225 6.46619 
-96.1899 87.4363 -166.64 -86.8529 -22.6805 -173.773 0.103456 1.85784 10.5485 -1.48939 1.95368 -172.055 43.5 -4.2e-05 1e-05 -24.5413 -2.144 -3.49656 42.3722 1.9e-05 0 81.1534 -4.80185 -5.47803 17.3 -3.55271e-15 3e-06 21.4546 -1e-06 0.003093 0.103456 1.85782 -10.5485 -18.3807 14.7268 176.576 43.5 -2.7e-05 4e-06 -43.5447 3.2045 -6.00805 42.3723 0 1e-05 82.8726 6.73678 5.34172 17.3 -6e-06 1.7e-05 21.4546 -1.9e-05 -0.003116 6.90197 -2.60373 -3e-06 8.89777 -0.464558 0.32906 12.5881 1e-05 8e-06 7.79208 -0.7733 0.76108 12.3432 -1.8e-05 -5e-06 7.48175 -0.609423 0.822138 25.8329 2.3e-05 7e-06 6.09914 -8.59137 -4.32725 11.7666 -8e-06 -6e-06 -18.8864 -14.4802 10.3455 19.7459 -1.48035 6.0001 -167.543 8.5138 -82.8975 11.2841 1.8e-05 -2e-05 -1.48686 -9.83211 63.6341 33 -1.3e-05 1.9e-05 -115.093 -17.1026 -8.0816 25.2 3.2e-05 1.1e-05 -23.5424 32.1874 -1.92108 19.7461 -1.48036 -6.00008 -179.25 -1.15014 87.9459 11.2841 7.10543e-15 -1e-06 -38.4044 -5.06523 -50.5194 33.0001 1.6e-05 -1e-06 -85.147 -6.82162 21.8771 25.1998 0.000123 0.000432 -17.2162 -10.6144 6.17545 
-97.4648 87.5934 -167.994 -87.1558 -17.0012 -174.643 0.103456 1.85784 10.5485 -1.0311 3.62487 -172.758 43.5 -4.2e-05 1e-05 -25.593 -3.13691 -3.64353 42.3722 1.9e-05 0 82.2123 -5.392 -3.35434 17.3 -3.55271e-15 3e-06 21.4546 -1e-06 0.003093 0.103456 1.85782 -10.5485 -19.8893 15.1944 177.034 43.5 -2.7e-05 4e-06 -43.0144 2.45733 -6.2334 42.3723 0 1e-05 80.7322 6.56082 6.01465 17.3 -6e-06 1.7e-05 21.4546 -1.9e-05 -0.003116 6.90197 -2.60373 -3e-06 9.06733 -0.785228 0.23511 12.5881 1e-05 8e-06 8.14103 -1.4235 0.630779 12.3432 -1.8e-05 -5e-06 7.84178 -1.26099 0.732735 25.8329 2.3e-05 7e-06 6.07905 -9.49198 -3.32545 11.7666 -8e-06 -6e-06 -19.2784 -17.064 11.0183 19.7459 -1.48035 6.0001 -167.904 8.46966 -82.7852 11.2841 1.8e-05 -2e-05 -0.63585 -11.0431 64.3821 33 -1.3e-05 1.9e-05 -115.004 -15.9381 -7.28799 25.2 3.2e-05 1.1e-05 -23.4062 32.6655 -2.36839 19.7461 -1.48036 -6.00008 -179.08 -1.68173 87.7466 11.2841 -1.42109e-14 -1e-06 -37.4803 -4.65423 -50.4081 33.0001 1.6e-05 -1e-06 -84.0115 -6.21728 21.4156 25.1998 0.000123 0.000432 -16.6069 -10.4183 5.71653 
-98.5353 87.9017 -169.061 -87.1202 -10.7369 -175.516 0.103456 1.85784 10.5485 0.269313 6.08242 -173.026 43.5 -4.2e-05 1e-05 -25.4342 -4.34326 -4.35637 42.3722 1.9e-05 -2.84217e-14 82.4366 -5.4907 -1.16691 17.3 7.10543e-15 3e-06 21.4546 -1e-06 0.003093 0.103456 1.85782 -10.5485 -21.1711 13.3529 177.545 43.5 -2.7e-05 4e-06 -42.362 2.85923 -5.79229 42.3723 7.10543e-15 1e-05 78.8568 6.56622 4.15957 17.3 -6e-06 1.7e-05 21.4546 -1.9e-05 -0.003116 6.90197 -2.60373 -3e-06 9.27088 -1.0009 0.127993 12.5881 1e-05 8e-06 8.55424 -1.86588 0.458392 12.3432 -1.8e-05 -5e-06 8.26311 -1.7069 0.588545 25.8329 2.3e-05 7e-06 5.87997 -10.3781 -2.50989 11.7666 -8e-06 -6e-06 -18.7308 -19.1324 11.4135 19.7459 -1.48035 6.0001 -168.184 8.22524 -82.8638 11.2841 1.8e-05 -2e-05 0.291997 -11.9757 64.8203 33 -1.3e-05 1.9e-05 -115.24 -15.0814 -6.64016 25.2 3.2e-05 1.1e-05 -23.7315 32.5331 -2.33772 19.7461 -1.48036 -6.00008 -178.808 -2.2757 87.5341 11.2841 0 -1e-06 -36.9655 -4.82107 -50.2756 33.0001 1.6e-05 -1e-06 -83.3241 -6.56914 21.0891 25.1998 0.000123 0.000432 -16.3964 -11.2893 6.00339 
-99.5753 88.0593 -170.197 -87.186 -4.34393 -176.376 0.103456 1.85784 10.5485 1.45032 8.33172 -174.131 43.5 -4.2e-05 1e-05 -25.0387 -6.09512 -4.11282 42.3722 1.9e-05 -2.84217e-14 83.3415 -5.73563 1.4743 17.3 -3.55271e-15 3e-06 21.4546 -1e-06 0.003093 0.103456 1.85782 -10.5485 -22.5687 9.2834 177.095 43.5 -2.7e-05 4e-06 -42.1932 4.15288 -3.69558 42.3723 0 1e-05 79.6086 7.41611 1.07312 17.3 -6e-06 1.7e-05 21.4546 -1.9e-05 -0.003116 6.90197 -2.60373 -3e-06 9.36619 -1.14516 -0.0219008 12.5881 1e-05 8e-06 8.74771 -2.17714 0.187294 12.3432 -1.8e-05 -5e-06 8.46305 -2.03125 0.337511 25.8329 2.3e-05 7e-06 5.81301 -10.905 -2.02879 11.7666 -8e-06 -6e-06 -17.9259 -20.4987 11.7372 19.7459 -1.48035 6.0001 -168.187 7.78082 -83.5032 11.2841 1.8e-05 -2e-05 1.0143 -12.5819 64.9599 33 -1.3e-05 1.9e-05 -115.708 -14.6784 -6.21575 25.2 3.2e-05 1.1e-05 -23.8508 32.3337 -2.25275 19.7461 -1.48036 -6.00008 -178.178 -2.81255 87.561 11.2841 -2.84217e-14 -1e-06 -36.2964 -4.97371 -50.2281 33.0001 1.6e-05 -1e-06 -83.3121 -6.57754 20.8494 25.1998 0.000123 0.000432 -15.9516 -11.0251 5.38647 
-100.251 88.3233 -170.97 -86.6935 1.98866 -177.238 0.103456 1.85784 10.5485 3.80526 10.1412 -175.001 43.5 -4.2e-05 1e-05 -23.3675 -7.70349 -4.36363 42.3722 1.9e-05 -2.84217e-14 83.5768 -6.62698 4.27428 17.3 0 3e-06 21.4546 -1e-06 0.003093 0.103456 1.85782 -10.5485 -22.7392 3.65705 176.412 43.5 -2.7e-05 4e-06 -41.9631 5.83536 -0.805063 42.3723 1.42109e-14 1e-05 81.1964 8.50082 -2.00604 17.3 -6e-06 1.7e-05 21.4546 -1.9e-05 -0.003116 6.90197 -2.60373 -3e-06 9.46669 -1.16447 -0.0977578 12.5881 1e-05 8e-06 8.94832 -2.22674 0.0417985 12.3432 -1.8e-05 -5e-06 8.66509 -2.08671 0.195534 25.8329 2.3e-05 7e-06 5.4691 -11.508 -1.59541 11.7666 -8e-06 -6e-06 -16.6872 -21.5208 11.5947 19.7459 -1.48035 6.0001 -168.648 7.03929 -83.6078 11.2841 1.8e-05 -2e-05 0.613435 -12.2123 63.9286 33 -1.3e-05 1.9e-05 -116.048 -15.3566 -6.1401 25.2 3.2e-05 1.1e-05 -24.0254 31.6189 -1.92854 19.7461 -1.48036 -6.00008 -178.029 -2.39645 87.4203 11.2841 0 -1e-06 -36.5006 -8.07027 -49.2581 33.0001 1.6e-05 -1e-06 -86.0002 -3.66341 20.8039 25.1998 0.000123 0.000432 -13.1264 -15.7068 8.603 
-100.746 88.5304 -171.57 -85.8414 8.32855 -178.166 0.103456 1.85784 10.5485 6.56891 12.6848 -175.594 43.5 -4.2e-05 1e-05 -21.4578 -9.21003 -5.09912 42.3722 1.9e-05 2.84217e-14 83.6029 -7.32111 6.29764 17.3 -3.55271e-15 3e-06 21.4546 -1e-06 0.003093 0.103456 1.85782 -10.5485 -22.3168 -2.43668 175.761 43.5 -2.7e-05 4e-06 -42.5439 7.67835 1.97899 42.3723 0 1e-05 82.5249 8.969 -5.67229 17.3 -6e-06 1.7e-05 21.4546 -1.9e-05 -0.003116 6.90197 -2.60373 -3e-06 9.55245 -1.1627 -0.220609 12.5881 1e-05 8e-06 9.11818 -2.24335 -0.20136 12.3432 -1.8e-05 -5e-06 8.83615 -2.11576 -0.0459987 25.8329 2.3e-05 7e-06 5.23796 -11.6107 -1.60281 11.7666 -8e-06 -6e-06 -14.9105 -21.73 11.7924 19.7459 -1.48035 6.0001 -168.949 6.33128 -83.5094 11.2841 1.8e-05 -2e-05 0.351486 -11.5065 62.4287 33 -1.3e-05 1.9e-05 -116.2 -15.8309 -6.15888 25.2 3.2e-05 1.1e-05 -25.3981 31.3174 -1.70026 19.7461 -1.48036 -6.00008 -177.91 -1.61815 87.1099 11.2841 0 -1e-06 -35.9875 -8.88852 -48.9271 33.0001 1.6e-05 -1e-06 -86.6706 -2.8001 20.7719 25.1998 0.000123 0.000432 -12.7101 -15.4555 8.19241 
-101.118 88.5827 -172.043 -84.8969 14.682 -179.202 0.103456 1.85784 10.5485 9.29434 15.3928 -176.323 43.5 -4.2e-05 1e-05 -19.7413 -10.8396 -5.77093 42.3722 1.9e-05 0 83.8544 -7.95035 7.91151 17.3 0 3e-06 21.4546 -1e-06 0.003093 0.103456 1.85782 -10.5485 -22.0175 -7.38162 175.52 43.5 -2.7e-05 4e-06 -44.2867 9.22285 3.94298 42.3723 -2.84217e-14 1e-05 82.6584 8.6838 -9.58141 17.3 -6e-06 1.7e-05 21.4546 -1.9e-05 -0.003116 6.90197 -2.60373 -3e-06 9.59406 -1.12138 -0.407803 12.5881 1e-05 8e-06 9.19772 -2.19418 -0.580788 12.3432 -1.8e-05 -5e-06 8.91617 -2.08893 -0.427688 25.8329 2.3e-05 7e-06 4.97379 -11.026 -1.98348 11.7666 -8e-06 -6e-06 -12.7685 -21.1212 12.466 19.7459 -1.48035 6.0001 -168.956 5.63134 -83.3836 11.2841 1.8e-05 -2e-05 0.384111 -10.6901 60.8127 33 -1.3e-05 1.9e-05 -116.452 -15.5039 -6.07465 25.2 3.2e-05 1.1e-05 -27.6034 31.5711 -1.58285 19.7461 -1.48036 -6.00008 -177.807 -0.672888 86.5332 11.2841 2.84217e-14 -1e-06 -35.4767 -9.36419 -48.7307 33.0001 1.6e-05 -1e-06 -87.1366 -2.82625 20.8379 25.1998 0.000123 0.000432 -12.4468 -15.761 8.25996 
-101.356 88.537 -172.351 -83.8932 20.7844 179.673 0.103456 1.85784 10.5485 11.8057 17.664 -177.239 43.5 -4.2e-05 1e-05 -18.3953 -12.4882 -6.24776 42.3722 1.9e-05 0 84.1542 -8.54508 9.60765 17.3 0 3e-06 21.4546 -1e-06 0.003093 0.103456 1.85782 -10.5485 -21.8473 -10.5027 175.782 43.5 -2.7e-05 4e-06 -46.231 10.3637 4.73586 42.3723 0 1e-05 82.4175 8.05793 -12.544 17.3 -6e-06 1.7e-05 21.4546 -1.9e-05 -0.003116 6.90197 -2.60373 -3e-06 9.64781 -1.08759 -0.599564 12.5881 1e-05 8e-06 9.30171 -2.16075 -0.967751 12.3432 -1.8e-05 -5e-06 9.02073 -2.07789 -0.815914 25.8329 2.3e-05 7e-06 4.64011 -10.0852 -2.60466 11.7666 -8e-06 -6e-06 -11.0733 -20.0627 13.2638 19.7459 -1.48035 6.0001 -168.835 5.06637 -83.162 11.2841 1.8e-05 -2e-05 0.343359 -9.59536 59.0947 33 -1.3e-05 1.9e-05 -116.704 -15.043 -6.13116 25.2 3.2e-05 1.1e-05 -29.2594 33.3514 -2.32533 19.7461 -1.48036 -6.00008 -177.77 0.429913 85.7443 11.2841 0 -1e-06 -34.7517 -9.37041 -48.4947 33.0001 1.6e-05 -1e-06 -87.5471 -3.21549 21.0034 25.1998 0.000123 0.000432 -12.3907 -15.9912 8.38893 
